<svg width="160" height="29" viewBox="0 0 160 29" fill="none" xmlns="http://www.w3.org/2000/svg">
<g clip-path="url(#clip0_1713_19389)">
<path d="M0 27.7416H5.27672V7.83748H0V27.7416ZM0 4.73353H5.27672V0H0V4.73353ZM13.8372 7.83748H8.67681V27.7416H13.9535V16.4509C13.9535 13.735 15.6607 11.8726 17.9887 11.8726C20.2002 11.8726 21.4418 13.3858 21.4418 15.5198V27.7416H26.7185V14.7438C26.7185 10.3982 23.9638 7.29428 19.8511 7.29428C17.1351 7.29428 15.3115 8.41947 13.9535 10.5534H13.8372V7.83748ZM35.1313 7.83748H29.971V27.7416H35.2477V16.4509C35.2477 13.735 36.9549 11.8726 39.2829 11.8726C41.4944 11.8726 42.736 13.3858 42.736 15.5198V27.7416H48.0127V14.7438C48.0127 10.3982 45.258 7.29428 41.1452 7.29428C38.4293 7.29428 36.6057 8.41947 35.2477 10.5534H35.1313V7.83748ZM60.6934 28.3236C66.8625 28.3236 71.0917 23.7452 71.0917 17.8089C71.0917 11.8726 66.8625 7.29428 60.6934 7.29428C54.5243 7.29428 50.2952 11.8726 50.2952 17.8089C50.2952 23.7452 54.5243 28.3236 60.6934 28.3236ZM60.6934 24.2884C57.4343 24.2884 55.6495 21.6889 55.6495 17.8089C55.6495 13.929 57.4343 11.2906 60.6934 11.2906C63.9138 11.2906 65.7374 13.929 65.7374 17.8089C65.7374 21.6889 63.9138 24.2884 60.6934 24.2884ZM78.2528 27.7416H83.2968L90.2419 7.83748H84.9651L81.706 18.1581C81.124 20.0593 80.8524 21.3397 80.8524 21.3397H80.7748C80.7748 21.3397 80.4644 20.0593 79.8824 18.1581L76.7009 7.83748H71.3466L78.2528 27.7416ZM103.999 27.7416H109.081V27.5476C108.616 27.1984 108.383 26.306 108.383 24.7928V14.6662C108.383 10.0102 105.977 7.33308 100.002 7.33308C94.1825 7.33308 91.5829 10.3982 91.4277 13.8902H96.1224C96.2776 11.989 97.4804 11.0966 99.9636 11.0966C102.175 11.0966 103.3 12.0278 103.3 13.4634C103.3 14.9766 101.787 15.2482 98.4892 15.7138C94.0661 16.3345 90.4965 17.7313 90.4965 22.1156C90.4965 26.0732 93.3677 28.2072 97.4416 28.2072C100.856 28.2072 102.292 27.0432 103.3 25.53H103.378C103.494 26.4224 103.688 27.3536 103.999 27.7416ZM98.722 24.5212C96.8596 24.5212 95.618 23.8616 95.618 21.9993C95.618 20.1369 96.976 19.5161 99.7308 18.8953C101.05 18.5849 102.486 18.2745 103.417 17.7313V20.7189C103.417 22.6588 101.748 24.5212 98.722 24.5212ZM120.119 28.246C124.891 28.246 127.878 25.3748 128.344 20.8353H126.055C125.667 24.0556 123.533 26.1896 120.119 26.1896C115.579 26.1896 113.484 22.3872 113.484 17.7313C113.484 13.0754 115.54 9.23425 120.157 9.23425C123.261 9.23425 125.24 10.7474 125.822 13.735H128.228C127.568 9.62225 124.58 7.21669 120.157 7.21669C114.337 7.21669 111.001 11.7562 111.001 17.7313C111.001 23.7064 114.26 28.246 120.119 28.246ZM139.409 28.246C143.91 28.246 146.742 25.6464 147.596 21.6889H145.268C144.492 24.4048 142.746 26.1896 139.409 26.1896C134.831 26.1896 132.658 22.6588 132.542 18.1581H147.829C147.868 12.5322 145.656 7.21669 139.215 7.21669C133.667 7.21669 130.059 11.7174 130.059 17.7313C130.059 23.7452 133.395 28.246 139.409 28.246ZM132.581 16.2569C133.007 12.2606 135.141 9.19545 139.215 9.19545C143.328 9.19545 145.19 12.2994 145.307 16.2569H132.581ZM150.926 27.7416H153.332V0H150.926V27.7416ZM157.594 27.7416H160V0H157.594V27.7416Z" fill="white"/>
</g>
<defs>
<clipPath id="clip0_1713_19389">
<rect width="160" height="28.4298" fill="white"/>
</clipPath>
</defs>
</svg>
