<svg xmlns="http://www.w3.org/2000/svg" xmlns:xlink="http://www.w3.org/1999/xlink" viewBox="0 0 536.98 94.37"><defs><style>.m{fill:url(#e);}.n{fill:url(#d);}.o{fill:url(#g);}.p{fill:url(#f);}.q{fill:url(#i);}.r{fill:url(#h);}.s{fill:url(#k);}.t{fill:url(#j);}.u{fill:url(#l);}.v{fill:#7d7d7d;}.w{fill:#231815;}</style><radialGradient id="d" cx="-14.33" cy="719.75" fx="-14.33" fy="719.75" r="59.99" gradientTransform="translate(-145.22 -333.23) rotate(-30) scale(.92 .6)" gradientUnits="userSpaceOnUse"><stop offset=".14" stop-color="#efefef"/><stop offset="1" stop-color="#c9caca"/></radialGradient><radialGradient id="e" cx="-14.33" cy="719.75" fx="-14.33" fy="719.75" r="59.99" gradientTransform="translate(-145.22 -333.23) rotate(-30) scale(.92 .6)" xlink:href="#d"/><radialGradient id="f" cy="719.75" fy="719.75" r="59.99" gradientTransform="translate(-145.22 -333.23) rotate(-30) scale(.92 .6)" xlink:href="#d"/><radialGradient id="g" cx="-14.33" cy="719.75" fx="-14.33" fy="719.75" r="59.99" gradientTransform="translate(-145.22 -333.23) rotate(-30) scale(.92 .6)" xlink:href="#d"/><radialGradient id="h" cx="-13.44" cy="718.87" fx="-13.44" fy="718.87" r="59.93" gradientTransform="translate(-145.36 -333.48) rotate(-30) scale(.92 .6)" gradientUnits="userSpaceOnUse"><stop offset=".19" stop-color="#f6bec8"/><stop offset=".38" stop-color="#f4b6c0"/><stop offset=".67" stop-color="#efa1ac"/><stop offset="1" stop-color="#e8828f"/></radialGradient><radialGradient id="i" cx="-13.44" cy="718.87" fx="-13.44" fy="718.87" r="59.93" gradientTransform="translate(-145.36 -333.48) rotate(-30) scale(.92 .6)" xlink:href="#h"/><radialGradient id="j" cx="-16.55" cy="719.31" fx="-16.55" fy="719.31" r="63.52" gradientTransform="translate(-145.29 -333.36) rotate(-30) scale(.92 .6)" gradientUnits="userSpaceOnUse"><stop offset=".14" stop-color="#fff"/><stop offset="1" stop-color="#aaabab"/></radialGradient><radialGradient id="k" cx="-2392.02" cy="-815.82" fx="-2392.02" fy="-815.82" r="63.52" gradientTransform="translate(-2099.53 726.25) rotate(150) scale(.92 .6)" xlink:href="#j"/><radialGradient id="l" cx="-13.44" cy="718.87" fx="-13.44" fy="718.87" r="59.93" gradientTransform="translate(-145.36 -333.48) rotate(-30) scale(.92 .6)" xlink:href="#h"/></defs><g id="a"/><g id="b"><g id="c"><g><path class="v" d="M296.09,55.56c6.27,0,11.24,1.67,14.9,5,3.66,3.33,5.5,7.8,5.5,13.41,0,5.14-1.94,9.42-5.82,12.84-3.62,3.19-8.1,4.78-13.44,4.78h-23.93V55.56h22.79Zm1.64,30.65c3.58,0,6.53-1.16,8.83-3.47s3.46-5.29,3.46-8.92c0-3.86-1.24-6.98-3.71-9.34-2.47-2.36-5.72-3.55-9.73-3.55h-17.32v25.28h18.46Z"/><path class="v" d="M177.24,55.56l-17.34,21.77-17.27-21.77h-7.46v36.03c3.3,0,5.97-2.67,5.97-5.97v-23.49h.15l18.56,23.49,18.71-23.49h.15v23.49c0,3.3,2.67,5.97,5.97,5.97V55.56h-7.44Z"/><path class="v" d="M243.99,86.21h-26.37v-10.65h21.1c0-2.97-2.41-5.38-5.38-5.38h-15.72v-9.26h24.98c2.97,0,5.38-2.41,5.38-5.37h-36.33v36.03h37.72c0-2.97-2.41-5.37-5.38-5.37Z"/><path class="v" d="M341.23,61.53v30.05c3.3,0,5.97-2.67,5.97-5.97v-30.05c-3.3,0-5.97,2.67-5.97,5.97Z"/><path class="v" d="M408.39,83.47c-3.14,2.18-6.2,3.64-12.57,3.64-5.27,0-9.46-1.25-12.56-3.76-3.1-2.5-4.65-5.8-4.65-9.88s1.57-7.2,4.7-9.75c3.14-2.55,7.19-3.83,12.17-3.83,6.57,0,9.96,1.41,13.17,4.44,2.25,1.94,5.64,1.69,7.58-.56-4.81-6.24-11.73-9.36-20.75-9.36-6.27,0-11.53,1.61-15.77,4.83-4.88,3.68-7.32,8.43-7.32,14.23s2.41,10.68,7.22,14.33c4.21,3.18,9.5,4.78,15.87,4.78,4.54,0,8.45-.67,11.72-2.02,3.27-1.34,6.2-3.52,8.78-6.54-1.94-2.25-5.33-2.5-7.58-.56Z"/><path class="v" d="M462.44,55.56h-7.51l-18.68,35.28c2.52,1.57,5.84,.79,7.4-1.73l2.9-5.59h24.26l2.91,5.59c1.57,2.52,4.88,3.3,7.4,1.73l-18.68-35.28Zm-12.99,22.59l9.29-17.46,9.18,17.46h-18.47Z"/><path class="v" d="M531.61,86.21h-22.44v-24.68c0-3.3-2.67-5.97-5.97-5.97v36.03h33.79c0-2.97-2.41-5.37-5.38-5.37Z"/></g><g><path class="w" d="M341.21,39.78c-.69-.58-1.51-2.01-2.23-3.35-.27-.52-3.29-6.5-3.89-7.01,2.8-.67,4.8-2.62,4.8-6.29,0-3.07-1.73-5.87-7.25-6.18h0c-.19-.01-1.08-.03-1.14-.03-3.71-.05-13.78,0-13.78,0v.37c1.19,.17,2.84,.44,2.84,2.72v18.16c0,2.28-1.64,2.55-2.84,2.72v.37h10.66v-.37c-1.2-.17-2.84-.44-2.84-2.72,0-.26-.03-20.14-.03-20.14h5.32c1.43,0,4.9,.83,4.9,5.35,0,2.78-1.2,4.08-2.16,4.58h0c-2.21-.47-5.29,.49-5.75,2.25,.38-1.42,2.96-1.37,4.91,2.29,1.45,2.74,3.84,8.75,4.6,8.75h6.44v-.42c-.93-.16-1.93-.5-2.56-1.04"/><path class="w" d="M149.47,16.49c-7.91,0-14.3,5.09-14.3,12.65s6.39,12.64,14.3,12.64,14.3-5.09,14.3-12.64-6.39-12.65-14.3-12.65m0,24.09c-5.23,0-9.48-4.45-9.48-11.41s4.24-11.41,9.48-11.41,9.47,4.45,9.47,11.41-4.24,11.41-9.47,11.41"/><path class="w" d="M263.51,17.09h0s-.91-.17-3.78-.18c-2.87-.01-13.07,.06-13.07,.06v.37c1.19,.17,2.84,.44,2.84,2.72v18.16c0,2.28-1.64,2.55-2.84,2.72v.37h14.59c8.16,0,12.64-4.34,12.64-12.49,0-7.44-5.21-11.05-10.38-11.73m-5.56,22.99c-3.19,0-3.61-.95-3.61-2.71V18.29c3.96,0,15.18-.68,15.18,10.53,0,7.82-4.74,11.27-11.58,11.27"/><path class="w" d="M199.76,16.97h-7.25v.39c2.5,.68,2.99,2.17,2.99,3.19v11.93l-14.41-15.5h-7.99v.39c.88,.08,1.87,.63,2.51,1.34v18.74c0,1.01-.49,2.84-2.99,3.53v.36h7.25v-.36c-2.51-.69-2.99-2.52-2.99-3.53V20.13l18.91,21.18h.98V20.57c0-1.01,.48-2.52,2.99-3.21v-.39h0Z"/><path class="w" d="M306.84,34.88l-.27-.1c-.79,1.13-2.91,5.43-5.73,5.43h-6.92c-1.03,0-2-.77-2.02-2.13v-8.4h3.67c.53,0,3.82,.05,4.28,3.3h.38v-7.94h-.38c-.46,3.29-3.8,3.3-4.29,3.3h-3.66v-10.26h6.85c2.15,0,4.38,1.14,6.89,4.62l.24-.17-2.18-5.56s-19.5,0-19.52,0v.36c1.19,.17,2.84,.44,2.84,2.72v18.16c0,2.28-1.64,2.55-2.84,2.72v.38h21.07l1.59-6.43Z"/><path class="w" d="M222.91,16.49c-7.91,0-14.3,5.09-14.3,12.65s6.39,12.64,14.3,12.64,14.3-5.09,14.3-12.64-6.39-12.65-14.3-12.65m0,24.09c-5.23,0-9.48-4.45-9.48-11.41s4.24-11.41,9.48-11.41,9.47,4.45,9.47,11.41-4.24,11.41-9.47,11.41"/><path d="M373.8,36.94c-.52-1.27-6.89-20.41-6.89-20.41h-.41c-.95,.9-2.77,1.68-4.62,2.07l-4.73,12.58-2.72,7.25c-.26,.65-.91,2.19-2.91,2.5v.37h6.86v-.39c-.17-.03-.47-.06-.66-.1-2.12-.49-1.82-1.7-1.61-2.3l2.13-5.66h8.92l1.67,4.83c.33,.94,.88,3.12-1.81,3.32v.31h10.35v-.37c-2.11-.16-2.68-1.8-3.57-3.99Zm-14.97-5.68l4.05-10.77,3.72,10.77h-7.77Z"/></g><g><path class="n" d="M68.55,75.62c-3.51-6.32-14.35-10.27-24.21-12.82s-22-6.94-28.04-12.1c-7.82-6.7-7.83-13.51-4.3-18.91,2.49-3.81,10.59-13.21,20.6-15.45-10.16,4.32-13.67,12.26-9.17,18.84,3.63,5.3,10.86,8.9,20.82,12.2,7.35,2.43,18.32,5.47,24.51,8.89,11.33,6.26,14.64,12.42,14.49,16.83-.16,4.92-3.04,8.16-5.54,9.76-4.99,3.21-10.76,5.51-16.68,6.67,9.92-3.73,10.3-8.9,7.51-13.91Z"/><path class="m" d="M44.72,18.67c3.51,6.32,14.35,10.27,24.21,12.82,9.76,2.52,22,6.94,28.04,12.1,7.82,6.7,7.76,13.61,4.23,19.01-2.49,3.81-10.08,13.03-20.5,15.2,10.16-4.32,13.64-12.11,9.14-18.69-3.63-5.3-10.86-8.9-20.82-12.2-7.35-2.43-18.32-5.47-24.51-8.89-11.33-6.26-14.64-12.42-14.49-16.83,.16-4.92,3.04-8.16,5.54-9.76,4.99-3.21,10.76-5.51,16.68-6.67-9.92,3.73-10.3,8.9-7.51,13.91Z"/><g><path class="p" d="M26.89,93.39c10.27,1.55,16.19,.96,21.53,.18,1.23-.18,6.22-1.44,7.45-5.36,1.21-3.82-2.63-9.59-12.82-14.3-10.2-4.71-20.29-7.15-28.58-12.01-7.54-4.42-9.61-11.62-9.23-15.14,.38-3.55,1.39-6.08,4.54-9.53-4.17,3.06-5.7,5.83-8,12.09-2.88,7.83-.18,14.18,4.19,19.07,4.8,5.37,14.77,10.7,19.96,13.7,5.69,3.29,15.77,9.49,.96,11.28Z"/><path class="o" d="M86.33,.98c-10.27-1.55-16.19-.96-21.53-.18-1.23,.18-6.22,1.44-7.45,5.36-1.21,3.82,2.63,9.59,12.82,14.3,10.2,4.71,20.29,7.15,28.58,12.01,7.54,4.42,9.61,11.62,9.23,15.14-.38,3.55-1.39,6.08-4.54,9.53,4.17-3.06,5.7-5.83,8-12.09,2.88-7.83,.18-14.18-4.19-19.07-4.8-5.37-14.77-10.7-19.96-13.7-5.69-3.29-15.77-9.49-.96-11.28Z"/></g><path class="r" d="M52.09,9.93c7.65,1.4,12.84,3.19,19.39,10.92,7.08,8.35,10.16,19.74,11.32,23.7,2.86,9.77,7.12,14.15,12.29,14.76,4.09,.48,7.72-1.42,9.99-3.47,3.46-3.12,4.84-6.1,6.97-12.68-2.46,3.64-4.26,4.29-5.96,4.91-4.84,1.77-7.02-2.3-8.15-5.97-1.07-3.48-2.47-14.6-8.65-23.06-6.63-9.07-14.14-13.52-26.55-14.8-7.63-.79-14.05,.19-22.59,4.61-1.9,.98-4.27,2.24-5.94,3.56,6.36-2.9,11.61-3.62,17.87-2.47Z"/><path class="q" d="M61.16,84.37c-7.65-1.4-12.84-3.19-19.39-10.92-7.08-8.35-10.16-19.74-11.32-23.7-2.86-9.77-7.12-14.15-12.29-14.76-4.09-.48-7.72,1.42-9.99,3.47-3.46,3.12-4.84,6.1-6.97,12.68,2.46-3.64,4.26-4.29,5.96-4.91,4.84-1.77,7.02,2.3,8.15,5.97,1.07,3.48,2.47,14.6,8.65,23.06,6.63,9.07,14.14,13.52,26.55,14.8,7.63,.79,14.05-.19,22.59-4.61,1.9-.98,4.27-2.24,5.94-3.56-6.36,2.9-11.61,3.62-17.87,2.47Z"/><path class="t" d="M30.27,91.01c-5.2-1.91-15.85-7.29-21.34-17.31-4.63-8.45-5.84-14.88-5.97-20.22-1.44,3.48-2.46,6.47-2.84,10.66-.32,3.46-.02,6.35,1.27,9.74,1.12,2.95,3.02,6.29,6.36,9.78,7.41,7.74,18.5,10.16,26.54,10.63,2.89,.17,8.08,.03,11.07-.34-2.52,.24-11.79-1.73-15.08-2.94Z"/><path class="s" d="M83.12,3.36c5.2,1.91,15.85,7.29,21.34,17.31,4.63,8.45,5.84,14.88,5.97,20.22,1.44-3.48,2.46-6.47,2.84-10.66,.32-3.46,.02-6.35-1.27-9.74-1.12-2.95-3.02-6.29-6.36-9.78C98.23,2.96,87.14,.54,79.11,.07c-2.89-.17-8.08-.03-11.07,.34,2.52-.24,11.79,1.73,15.08,2.94Z"/><path class="u" d="M81.5,65.5c-5.15-3.51-8.23-8.24-11.4-16.05-1.05-2.59-3.09-9.29-7.65-18.18-5.44-10.6-12.71-14.9-22.98-15.35-6.96-.31-11.91,1.43-17.62,5.5-4.13,2.94-7.42,6.75-9.69,10.08,8.57-6.73,15.07-5.77,19.59-2.7,5.15,3.51,8.23,8.24,11.4,16.05,1.02,2.53,4.68,12.87,8.18,19.16,5.76,10.34,12.77,14,22.61,14.36,7.08,.26,12.87-2.08,17.46-5.48,4.08-3.01,7.27-6.67,9.69-10.08-8.57,6.73-15.07,5.77-19.59,2.7Z"/></g></g></g></svg>